{"title":"From Dusk Till Dawn The Series S01E08 HDTV x264 AAC [GWC].mp4","uid":10107442,"size":135900562,"categoryP":"video","categoryS":"tv_shows","magnet":"?xt=urn:btih:7a8f88ad0658e89eca732fe93556c49141a42d60&amp;dn=From+Dusk+Till+Dawn+The+Series+S01E08+HDTV+x264+AAC+%5BGWC%5D.mp4&amp;tr=udp%3A%2F%2Ftracker.openbittorrent.com%3A80&amp;tr=udp%3A%2F%2Fopen.demonii.com%3A1337&amp;tr=udp%3A%2F%2Ftracker.coppersurfer.tk%3A6969&amp;tr=udp%3A%2F%2Fexodus.desync.com%3A6969","seeders":1,"leechers":0,"uploader":"canc232","files":1,"time":1399476524,"description":"From Dusk Till Dawn The Series S01E08 HDTV x264 AAC [GWC]\n\n\nSTORYLINE :\nA Texas Ranger is in hot pursuit of the infamous Gecko brothers.\n\n\nSCREENS : &lt;a href=&quot;\nhttp://i.imgur.com/Pel8pmU.jpg&quot; rel=&quot;nofollow&quot; target=&quot;_NEW&quot;&gt;\nhttp://i.imgur.com/Pel8pmU.jpg&lt;/a&gt; &lt;a href=&quot;\nhttp://i.imgur.com/nti8r96.jpg&quot; rel=&quot;nofollow&quot; target=&quot;_NEW&quot;&gt;\nhttp://i.imgur.com/nti8r96.jpg&lt;/a&gt; &lt;a href=&quot;\nhttp://i.imgur.com/NPhQF1P.jpg&quot; rel=&quot;nofollow&quot; target=&quot;_NEW&quot;&gt;\nhttp://i.imgur.com/NPhQF1P.jpg&lt;/a&gt;\n\n\n\nMEDIA INFO :\nGeneral \nFormat : MPEG-4 \nFormat profile : Base Media \nFile size : 130 MiB \nDuration : 42mn 20s \nOverall bit rate mode : Variable \nOverall bit rate : 428 Kbps \n\nVideo \nFormat : AVC \nFormat profile : &lt;a class=&quot;__cf_email__&quot; href=&quot;/cdn-cgi/l/email-protection&quot; data-cfemail=&quot;86ceefe1eec6cab5a8b6&quot;&gt;[email&amp;#160;protected]&lt;/a&gt;&lt;script cf-hash='f9e31' type=&quot;text/javascript&quot;&gt;\n/* &lt;![CDATA[ */!function(){try{var t=&quot;currentScript&quot;in document?document.currentScript:function(){for(var t=document.getElementsByTagName(&quot;script&quot;),e=t.length;e--;)if(t[e].getAttribute(&quot;cf-hash&quot;))return t[e]}();if(t&amp;&amp;t.previousSibling){var e,r,n,i,c=t.previousSibling,a=c.getAttribute(&quot;data-cfemail&quot;);if(a){for(e=&quot;&quot;,r=parseInt(a.substr(0,2),16),n=2;a.length-n;n+=2)i=parseInt(a.substr(n,2),16)^r,e+=String.fromCharCode(i);e=document.createTextNode(e),c.parentNode.replaceChild(e,c)}}}catch(u){}}();/* ]]&gt; */&lt;/script&gt; \nFormat settings, CABAC : Yes \nFormat settings, ReFrames : 4 frames \nDuration : 42mn 20s \nBit rate : 365 Kbps \nMaximum bit rate : 1 973 Kbps \nWidth : 720 pixels \nHeight : 404 pixels \nDisplay aspect ratio : 16:9 \nFrame rate : 23.976 fps \nStream size : 110 MiB (85%) \nTitle : From Dusk Till Dawn The Series S01E08 HDTV x264 AAC [GWC] \nWriting library : x264 core\n\nAudio \nFormat : AAC \nFormat profile : HE-AAC / LC \nDuration : 42mn 20s \nBit rate mode : Variable \nChannel(s) : 2 channels \nSampling rate : 48.0 KHz / 24.0 KHz \nStream size : 18.2 MiB (14%) \nLanguage : English \n","torrent":{"xt":"urn:btih:7a8f88ad0658e89eca732fe93556c49141a42d60","amp;dn":"From+Dusk+Till+Dawn+The+Series+S01E08+HDTV+x264+AAC+%5BGWC%5D.mp4","amp;tr":["udp%3A%2F%2Ftracker.openbittorrent.com%3A80","udp%3A%2F%2Fopen.demonii.com%3A1337","udp%3A%2F%2Ftracker.coppersurfer.tk%3A6969","udp%3A%2F%2Fexodus.desync.com%3A6969"],"infoHash":"7a8f88ad0658e89eca732fe93556c49141a42d60","infoHashBuffer":{"type":"Buffer","data":[122,143,136,173,6,88,232,158,202,115,47,233,53,86,196,145,65,164,45,96]},"announce":[],"urlList":[]}}